<svg width="20" height="20" class="mr-2" xmlns="http://www.w3.org/2000/svg" fill="currentColor" class="bi bi-music-note-beamed" viewBox="0 0 16 16" xmlns:xlink="http://www.w3.org/1999/xlink" xml:space="preserve" width="100%" height="100%"><path xmlns="http://www.w3.org/2000/svg" d="M6 13c0 1.105-1.12 2-2.5 2S1 14.105 1 13c0-1.104 1.12-2 2.5-2s2.5.896 2.5 2zm9-2c0 1.105-1.12 2-2.5 2s-2.5-.895-2.5-2 1.12-2 2.5-2 2.5.895 2.5 2z"></path><path xmlns="http://www.w3.org/2000/svg" fill-rule="evenodd" d="M14 11V2h1v9h-1zM6 3v10H5V3h1z"></path><path xmlns="http://www.w3.org/2000/svg" d="M5 2.905a1 1 0 0 1 .9-.995l8-.8a1 1 0 0 1 1.1.995V3L5 4V2.905z"></path></svg>